<svg id="Camada_1" data-name="Camada 1" xmlns="http://www.w3.org/2000/svg" viewBox="0 0 202.71 504.34">
  <path d="M157.14,109.57c0-50.65,38.53-93.77,88.19-100.37C297.64,2.25,347.26,37.72,357.51,89c6.25,31.31.11,60.38-19.59,86a42.66,42.66,0,0,1-7.2,7.56c-3.5,2.76-4.35,6.42-4.75,10.41q-3.77,37.56-7.46,75.15c-2.35,24.22-4.49,48.47-6.9,72.7-2.39,24.06-5.08,48.09-7.5,72.15-1.84,18.3-3.39,36.62-5.17,54.93-1.22,12.52-2.74,25-3.86,37.54-.47,5.33-3.44,7.19-8.21,7.19-11,0-21.92,0-32.88,0-7.82,0-15.63.09-23.44,0-6.08,0-8.21-1.76-8.85-7.72-1.66-15.48-3.09-31-4.63-46.48-1.87-18.79-3.81-37.57-5.64-56.37-1.53-15.66-2.89-31.33-4.44-47-1.53-15.33-3.26-30.65-4.81-46-1.52-15-2.91-30-4.39-45q-2.29-23.47-4.67-47c-.93-9.21-1.8-18.44-3-27.62a9.61,9.61,0,0,0-2.71-5.45C167.78,165.92,157.15,138.49,157.14,109.57ZM284.5,501Q300,345,315.42,189.43H201.52C211.85,293.52,222.13,397.12,232.44,501Zm-116-397.7H348.41a90.18,90.18,0,0,0-179.91,0ZM168.2,115c.38,3.22.67,5.64,1,8a88.21,88.21,0,0,0,21.09,48.52c4,4.69,8.43,6.77,15,6.7,35.76-.38,71.52-.31,107.27-.05,5.66,0,10-1.29,13.35-5.79,1.89-2.52,4.06-4.84,5.93-7.37,9.79-13.32,14.6-28.4,16.47-44.72.51-4.43-.18-5.44-4.55-5.43q-84.57.19-169.13.09Z" transform="translate(-157.14 -8.33)"/>
  <path d="M259.91,242.84c-9.63,0-19.26-.11-28.88,0-4.1.07-6.72-1.87-6.76-5.59,0-3.88,3-5.63,6.83-5.63l58.26,0c3.68,0,6.41,1.59,6.47,5.36.05,3.95-2.58,5.81-6.54,5.8C279.5,242.82,269.7,242.85,259.91,242.84Z" transform="translate(-157.14 -8.33)"/>
  <path d="M259.94,266c7,0,13.92.09,20.88,0,3.77-.07,6.38,1.53,6.53,5.21.16,4-2.55,5.82-6.47,5.82q-20.89,0-41.78,0c-3.75,0-6.4-2-6.37-5.53s2.36-5.6,6.32-5.52C246,266.12,253,266,259.94,266Z" transform="translate(-157.14 -8.33)"/>
  <path d="M260.12,310.92c-5.49,0-11-.07-16.46,0-3.74.06-6.22-1.38-6.42-5.29-.19-3.74,2.33-5.58,5.64-5.63q17.2-.27,34.41,0c3.27.06,5.85,1.9,5.68,5.62s-2.64,5.37-6.39,5.3C271.09,310.85,265.61,310.93,260.12,310.92Z" transform="translate(-157.14 -8.33)"/>
</svg>
