<svg id="Camada_1" data-name="Camada 1" xmlns="http://www.w3.org/2000/svg" viewBox="0 0 1649.15 654.92">
  <defs>
    <style>
      .cls-1 { fill: #ffffff; }
      .cls-2 { fill: #000000; }

    </style>
  </defs>
  <path class="cls-2" d="M659.48,758.33H654q-75.71,0-151.41.08c-3.67,0-5.56-1.21-7.33-4.34q-41.34-73.16-82.9-146.19c-.9-1.57-1.87-3.1-3-5-12.12,9.88-23.87,19.66-35.83,29.17-15.75,12.53-31.7,24.8-47.45,37.32a8.84,8.84,0,0,0-3.15,5.2c-1,8.35-1.5,16.76-2.39,25.13-1.07,10.11-2.48,20.19-3.52,30.31-.87,8.37-1.39,16.77-2.13,25.15-.28,3.27-.25,6.69-1.25,9.75C312,769.61,308,771.09,303.3,771c-17-.21-33.92-.51-50.88-.58-7.64,0-15.29.49-22.93.55-6.42,0-10-3-10.78-9.23-1.14-9.69-1.88-19.42-2.93-29.12-1.37-12.6-2.94-25.17-4.3-37.76-1-9-1.67-18-2.58-27.06-1.33-13.09-2.77-26.17-4.1-39.27-.44-4.26-.6-8.55-1.05-12.81-1.11-10.44-2.4-20.87-3.45-31.32-.9-8.88-1.48-17.78-2.35-26.66-1.26-12.95-2.69-25.88-4-38.82-.82-8.21-1.43-16.44-2.28-24.64-1.08-10.47-2.38-20.91-3.45-31.37-.87-8.38-1.49-16.78-2.3-25.16-1.31-13.43-2.72-26.85-4-40.27-.82-8.53-1.47-17.08-2.3-25.61-.75-7.69-1.4-15.41-2.63-23-.31-2-2.49-3.78-4.12-5.33-20.07-19.09-32.26-42.38-35.85-69.76-1.65-12.58-2.81-25.51-1.83-38.1a123.38,123.38,0,0,1,21.26-60c17.7-26.18,40.92-45.39,71.81-53.9,40-11,77.75-6.17,112.46,17.54a131.3,131.3,0,0,1,43.72,49.87c11.38,22.53,15.07,46.72,13.18,71.7-2,26.86-11.06,51.24-27.91,72.46a50.27,50.27,0,0,1-9.17,9.15c-5.19,3.84-5.58,9.37-6.25,14.83-1.25,10.3-2.32,20.63-3.33,31-.85,8.69-1.44,17.41-2.27,26.1-1.26,13.11-2.66,26.2-4,39.31-.9,9-1.7,18-2.58,27-.86,8.86-1.76,17.72-2.64,26.58l1.87,1.45a13.66,13.66,0,0,1,1.54-3.47Q413.06,421,483.23,336.77a10.24,10.24,0,0,1,8.83-4.13q79,.19,157.91.09h6.61L503.64,507.94ZM148.42,254.53H383.65V240.12H148.42ZM268.15,420.35q19.23,0,38.46,0c4.48,0,8.54-3.31,8.73-7s-3.87-7.13-8.7-7.14q-38.2-.07-76.42,0c-4.68,0-8.66,3.58-8.6,7.29.08,4.43,3,6.87,8.57,6.88C242.84,420.37,255.5,420.35,268.15,420.35Zm.52,30.46c-9.33,0-18.65,0-28,0-4.43,0-8.06,3.2-8.12,7,0,3.29,3.73,7.15,7.73,7.17q28.21.18,56.44,0c4.39,0,7.91-4,7.61-7.66-.27-3.21-4.31-6.44-8.21-6.45C287,450.79,277.83,450.81,268.67,450.81Zm-.23,57.76c7.49,0,15,.07,22.46-.06,1.55,0,3.9-.31,4.45-1.28,1.28-2.24,2.42-5,2.25-7.51-.26-3.69-3.67-5.07-6.87-5.1-15-.17-30-.07-44.93-.05a5.4,5.4,0,0,0-1.46.29c-4,1.2-6.16,3.61-5.57,8s3.12,5.78,7.21,5.72C253.46,508.49,261,508.57,268.44,508.57Z" transform="translate(-134.83 -116.12)"/>
  <path class="cls-2" d="M1080,682.2c.09,1.93.2,3.22.2,4.52,0,20.81-.08,41.63.08,62.44,0,3.39-1.08,5-4.21,6.2-22.43,8.66-45.72,11.65-69.53,10.09a190.85,190.85,0,0,1-34-4.82c-20.44-5.14-37.85-15.27-47.59-34.41-11.84,7-23.13,14.34-35,20.59-29.33,15.45-61,20-93.75,18.92-19.53-.62-38.79-3-57.06-10.49-31.19-12.8-47-36.61-49.66-69.75-1.61-20,.16-39.52,7.82-58.24,8.59-21,24.65-34.69,44.28-44.76s40.8-14.81,62.41-18c35.16-5.2,70.59-6.19,106.05-6.75,1.3,0,2.59-.16,5-.31-.58-9.1,0-18.25-2-26.81-3.63-15.64-16-22.76-30.53-25.87a78.65,78.65,0,0,0-40.43,2C829,510.85,819.34,518,820.47,533.87H698.91c-1.5-14.8.14-28.92,6.31-42.36,10.34-22.55,28.7-36.62,50.39-47,22.16-10.56,45.84-15.42,70.09-18a409.49,409.49,0,0,1,76.3-.87c28.49,2.28,56.12,8.2,82.27,20.29,36.82,17,54,46.14,53.91,86.14q-.06,61.7,0,123.38a48.22,48.22,0,0,0,.89,10.89c2.56,11,8.63,15.68,19.82,15.83C1065.74,682.28,1072.56,682.2,1080,682.2ZM914.42,616.35c-19.11-.13-37.48,1-55.65,4.69-12.67,2.6-24.71,6.65-35,14.83-9.26,7.38-12.93,17-10.91,28.73s9.34,18.79,20.32,21.51c23.39,5.78,45.57,3.15,65.34-11.75,8.56-6.45,14.87-14.74,15.71-25.6C915.06,638.21,914.42,627.54,914.42,616.35Z" transform="translate(-134.83 -116.12)"/>
  <path class="cls-2" d="M1524.08,534H1402.65a80.63,80.63,0,0,1,2.14-31c7-25.46,24.48-42.1,46.77-54.44,21.39-11.85,44.7-17.6,68.71-20.87a398.81,398.81,0,0,1,85.71-1.93c28.15,2.24,55.47,8.13,81.35,20,37.23,17,54.64,46.29,54.54,86.76-.11,40.79,0,81.59,0,122.38,0,2.83,0,5.67.23,8.49,1.11,11.87,8.45,18.72,20.32,18.91,7,.12,13.92,0,21.18,0,.12,1.93.29,3.38.29,4.83,0,20.64-.09,41.29.11,61.94,0,3.66-1.27,5.24-4.52,6.49-22.44,8.62-45.73,11.56-69.54,10-11.07-.74-22.28-1.9-33-4.6-20.59-5.18-38.31-15.13-48.63-35.45-3.19,2.28-6.12,4.38-9.07,6.46-36.5,25.72-77.26,36-121.58,33.77-18.53-.94-36.73-3.19-54.1-10.15-31.73-12.73-47.68-36.73-50.34-70.29-1.57-19.82.22-39.19,7.77-57.75,8.62-21.18,24.8-35,44.63-45.06,19.65-10,40.82-14.72,62.43-17.92,35.17-5.2,70.6-6.16,106-6.72,1.15,0,2.3-.13,4.08-.24-.23-10.13,1.5-20.28-2.2-30.06-4.58-12.13-14.28-18.61-26.16-21.79a78.38,78.38,0,0,0-44.74,1.39C1532.19,511.12,1523.24,518.46,1524.08,534Zm94.05,82.4c-19.08-.18-37.43.95-55.59,4.65-12.67,2.59-24.72,6.64-35,14.8-9.28,7.36-13,17-11,28.7s9.27,18.83,20.25,21.57c23.38,5.83,45.56,3.21,65.35-11.66,8.72-6.55,15-15,15.84-26.06C1618.72,638,1618.13,627.45,1618.13,616.36Z" transform="translate(-134.83 -116.12)"/>
  <path class="cls-2" d="M1123.75,431.75h100.6c2.59,15.65,5.17,31.3,8,48.19,1.13-2.2,1.76-3.34,2.32-4.53,13.3-28.29,36.25-43.86,66.28-49.78,18.3-3.62,36.42-2.82,54,4,1.54.6,3.51,2.8,3.52,4.26.18,33,.11,65.95.07,98.92a10.51,10.51,0,0,1-.43,1.65c-1.58,0-3.34,0-5.11,0-15.31.26-30.66,0-45.93.91-33.78,2-54.86,22.22-58.67,56a254.65,254.65,0,0,0-1.64,27.88c-.17,44.13-.08,88.26-.08,132.39V758H1123.75Z" transform="translate(-134.83 -116.12)"/>
  <path class="cls-1" d="M148.42,254.53V240.12H383.65v14.41Z" transform="translate(-134.83 -116.12)"/>
  <path class="cls-1" d="M268.15,420.35c-12.65,0-25.31,0-38,0-5.52,0-8.49-2.45-8.57-6.88-.06-3.71,3.92-7.27,8.6-7.29q38.21-.09,76.42,0c4.83,0,8.87,3.49,8.7,7.14s-4.25,7-8.73,7Q287.38,420.37,268.15,420.35Z" transform="translate(-134.83 -116.12)"/>
  <path class="cls-1" d="M268.67,450.81c9.16,0,18.32,0,27.47,0,3.9,0,7.94,3.24,8.21,6.45.3,3.7-3.22,7.63-7.61,7.66q-28.22.22-56.44,0c-4,0-7.78-3.88-7.73-7.17.06-3.76,3.69-6.94,8.12-7C250,450.78,259.34,450.81,268.67,450.81Z" transform="translate(-134.83 -116.12)"/>
  <path class="cls-1" d="M268.44,508.57c-7.49,0-15-.08-22.46,0-4.09.06-6.64-1.44-7.21-5.72s1.6-6.82,5.57-8a5.4,5.4,0,0,1,1.46-.29c15,0,29.95-.12,44.93.05,3.2,0,6.61,1.41,6.87,5.1.17,2.48-1,5.27-2.25,7.51-.55,1-2.9,1.26-4.45,1.28C283.41,508.64,275.93,508.57,268.44,508.57Z" transform="translate(-134.83 -116.12)"/>
</svg>
